<svg width="38" height="36" viewBox="0 0 38 36" fill="none" xmlns="http://www.w3.org/2000/svg">
<path id="Vector" d="M18.1137 7.47134C20.9785 7.47134 23.6779 8.7413 25.6561 10.7266V10.7324C25.6561 9.77908 26.2975 9.05791 27.184 9.05791H27.4092C28.8081 9.05791 29.0884 10.3771 29.0884 10.7934L29.0943 25.6096C28.9969 26.5806 30.0969 27.0824 30.7078 26.4586C33.0824 24.016 35.9283 13.8892 29.2291 8.026C22.9813 2.55332 14.5958 3.45742 10.1375 6.52972C5.39888 9.80371 2.36997 17.0353 5.3121 23.8319C8.52512 31.2418 17.7103 33.4522 23.1772 31.2476C25.9446 30.1301 27.2204 33.8661 24.3439 35.0892C20.0087 36.9384 7.92707 36.7496 2.28437 26.9781C-1.52786 20.3773 -1.32617 8.76593 8.78896 2.75033C16.5201 -1.8546 26.7208 -0.578776 32.8701 5.84138C39.2961 12.5594 38.9244 25.1288 32.6508 30.0152C29.8096 32.2373 25.5904 30.0762 25.6209 26.8385L25.5893 25.7832C23.611 27.7426 20.9785 28.8918 18.1137 28.8918C12.4464 28.8918 7.45685 23.9011 7.45685 18.2396C7.45685 12.5172 12.4464 7.47369 18.1137 7.47369V7.47134ZM25.2422 17.8304C25.0276 13.6828 21.9494 11.1851 18.2298 11.1851H18.0891C13.802 11.1851 11.4203 14.5622 11.4203 18.3909C11.4203 22.6839 14.2968 25.395 18.0715 25.395C22.2848 25.395 25.051 22.3122 25.2527 18.6653L25.2422 17.8304Z" fill="black"/>
</svg>
