<svg width="39" height="39" viewBox="0 0 39 39" fill="none" xmlns="http://www.w3.org/2000/svg">
<path id="Vector" d="M19.4999 0C8.73028 0 0 8.73032 0 19.5C0 30.2697 8.73028 39 19.4999 39C30.2696 39 38.9999 30.2697 38.9999 19.5C38.9999 8.73032 30.2696 0 19.4999 0ZM14.7265 27.5824H10.7778V14.8749H14.7265V27.5824ZM12.7278 13.3149C11.4806 13.3149 10.6742 12.4313 10.6742 11.3384C10.6742 10.2233 11.505 9.3661 12.7785 9.3661C14.0521 9.3661 14.8321 10.2233 14.8565 11.3384C14.8565 12.4313 14.0521 13.3149 12.7278 13.3149ZM29.1483 27.5824H25.1996V20.54C25.1996 18.9008 24.6268 17.7877 23.1988 17.7877C22.108 17.7877 21.4601 18.5413 21.1737 19.2664C21.068 19.5244 21.0416 19.89 21.0416 20.2536V27.5803H17.0909V18.9272C17.0909 17.3408 17.0401 16.0144 16.9873 14.8728H20.418L20.5988 16.638H20.678C21.198 15.8092 22.4716 14.5864 24.6024 14.5864C27.2004 14.5864 29.1483 16.3272 29.1483 20.0688V27.5824Z" fill="black"/>
</svg>
