<svg width="35" height="35" viewBox="0 0 35 35" fill="none" xmlns="http://www.w3.org/2000/svg">
<path id="Vector" d="M17.502 1.46422e-06C7.83209 -0.00390872 0 7.82427 0 17.4863C0 25.1268 4.89945 31.6216 11.7227 34.0068C12.6416 34.2375 12.5008 33.5845 12.5008 33.1388V30.1084C7.19473 30.7301 6.97967 27.2188 6.62384 26.6322C5.90437 25.4044 4.20344 25.0916 4.71176 24.5051C5.92001 23.8834 7.15171 24.6615 8.57893 26.7691C9.61122 28.298 11.625 28.0399 12.6455 27.7857C12.8684 26.8669 13.3454 26.0457 14.0023 25.4084C8.50464 24.423 6.21327 21.0681 6.21327 17.0797C6.21327 15.1441 6.85063 13.365 8.10189 11.93C7.30421 9.5643 8.17618 7.53883 8.29349 7.23775C10.5653 7.03442 12.927 8.86438 13.1108 9.00906C14.4012 8.66105 15.8753 8.47727 17.5254 8.47727C19.1833 8.47727 20.6614 8.66887 21.9635 9.02079C22.4053 8.68451 24.595 7.11262 26.7065 7.30422C26.8199 7.6053 27.6723 9.58386 26.9216 11.9182C28.1885 13.3572 28.8336 15.152 28.8336 17.0914C28.8336 21.0876 26.5266 24.4465 21.0133 25.4162C21.4855 25.8806 21.8605 26.4344 22.1163 27.0454C22.3721 27.6563 22.5036 28.3121 22.5031 28.9744V33.3734C22.5344 33.7253 22.5031 34.0733 23.0896 34.0733C30.0145 31.7389 35 25.1972 35 17.4902C35 7.82427 27.164 1.46422e-06 17.502 1.46422e-06Z" fill="black"/>
</svg>
