<svg width="199" height="174" viewBox="0 0 199 174" fill="none" xmlns="http://www.w3.org/2000/svg">
<g id="Ellipse 1">
<path d="M137.646 150.634C85.6331 199.78 34.5818 160.29 11.176 133.216C-12.2297 106.143 0.873545 101.739 52.8869 52.5935C104.9 3.44776 166.04 -14.4456 189.445 12.6276C212.851 39.7008 189.66 101.488 137.646 150.634Z" fill="black"/>
<path d="M137.646 150.634C85.6331 199.78 34.5818 160.29 11.176 133.216C-12.2297 106.143 0.873545 101.739 52.8869 52.5935C104.9 3.44776 166.04 -14.4456 189.445 12.6276C212.851 39.7008 189.66 101.488 137.646 150.634Z" fill="black"/>
<path d="M137.646 150.634C85.6331 199.78 34.5818 160.29 11.176 133.216C-12.2297 106.143 0.873545 101.739 52.8869 52.5935C104.9 3.44776 166.04 -14.4456 189.445 12.6276C212.851 39.7008 189.66 101.488 137.646 150.634Z" fill="black"/>
</g>
</svg>
