<svg width="133" height="161" viewBox="0 0 133 161" fill="none" xmlns="http://www.w3.org/2000/svg">
<g id="Ellipse 2">
<path d="M126.954 124.666C129.037 196.233 146.446 138.908 110.576 141.679C74.7062 144.45 75.5035 130.635 0.124117 115.308C-1.95852 43.7401 22.3656 2.87033 58.2354 0.0990118C94.1053 -2.67231 124.872 53.0981 126.954 124.666Z" fill="black"/>
<path d="M126.954 124.666C129.037 196.233 146.446 138.908 110.576 141.679C74.7062 144.45 75.5035 130.635 0.124117 115.308C-1.95852 43.7401 22.3656 2.87033 58.2354 0.0990118C94.1053 -2.67231 124.872 53.0981 126.954 124.666Z" fill="black"/>
<path d="M126.954 124.666C129.037 196.233 146.446 138.908 110.576 141.679C74.7062 144.45 75.5035 130.635 0.124117 115.308C-1.95852 43.7401 22.3656 2.87033 58.2354 0.0990118C94.1053 -2.67231 124.872 53.0981 126.954 124.666Z" fill="black"/>
</g>
</svg>
